<svg xmlns="http://www.w3.org/2000/svg" width="32" height="32" viewBox="0 0 32 32">
    <g fill="none" fill-rule="evenodd">
        <g>
            <g>
                <g>
                    <g>
                        <path fill="#1877F2" d="M26.4 16c0-5.744-4.656-10.4-10.4-10.4-5.744 0-10.4 4.656-10.4 10.4 0 5.19 3.803 9.493 8.775 10.274v-7.268h-2.64V16h2.64v-2.291c0-2.607 1.553-4.046 3.928-4.046 1.138 0 2.328.203 2.328.203v2.559H19.32c-1.292 0-1.695.802-1.695 1.624V16h2.884l-.46 3.006h-2.424v7.268C22.597 25.494 26.4 21.19 26.4 16" transform="translate(-150 -688) translate(0 205) translate(0 475) translate(150 8)"/>
                        <path fill="#FFF" d="M20.048 19.006L20.51 16h-2.884v-1.95c0-.823.403-1.625 1.695-1.625h1.311v-2.56s-1.19-.203-2.328-.203c-2.375 0-3.928 1.44-3.928 4.047V16h-2.64v3.006h2.64v7.268c.53.083 1.072.126 1.625.126.553 0 1.096-.043 1.625-.126v-7.268h2.423" transform="translate(-150 -688) translate(0 205) translate(0 475) translate(150 8)"/>
                    </g>
                </g>
            </g>
        </g>
    </g>
</svg>
