<svg xmlns="http://www.w3.org/2000/svg" width="32" height="32" viewBox="0 0 32 32">
    <g fill="none" fill-rule="evenodd">
        <g>
            <g>
                <g>
                    <g>
                        <path fill="#4285F4" d="M25.222 16.215c0-.67-.06-1.313-.171-1.931H16.16v3.651h5.08c-.218 1.18-.883 2.18-1.883 2.85v2.368h3.05c1.786-1.643 2.815-4.064 2.815-6.938z" transform="translate(-190 -688) translate(0 205) translate(0 475) translate(190 8)"/>
                        <path fill="#34A853" d="M16.16 25.44c2.549 0 4.686-.845 6.248-2.287l-3.051-2.369c-.846.567-1.927.901-3.197.901-2.459 0-4.54-1.66-5.282-3.891H7.724v2.445c1.553 3.086 4.746 5.201 8.436 5.201z" transform="translate(-190 -688) translate(0 205) translate(0 475) translate(190 8)"/>
                        <path fill="#FBBC05" d="M10.878 17.794c-.189-.567-.296-1.172-.296-1.794 0-.622.107-1.227.296-1.794v-2.445H7.724C7.084 13.035 6.72 14.477 6.72 16c0 1.523.365 2.965 1.004 4.24l3.154-2.446z" transform="translate(-190 -688) translate(0 205) translate(0 475) translate(190 8)"/>
                        <path fill="#EA4335" d="M16.16 10.315c1.386 0 2.63.476 3.609 1.411l2.707-2.707C20.841 7.495 18.705 6.56 16.16 6.56c-3.69 0-6.883 2.115-8.436 5.2l3.154 2.446c.742-2.23 2.823-3.891 5.282-3.891z" transform="translate(-190 -688) translate(0 205) translate(0 475) translate(190 8)"/>
                    </g>
                </g>
            </g>
        </g>
    </g>
</svg>
